<?xml version="1.0" encoding="utf-8"?>
<!-- Generator: Adobe Illustrator 19.0.0, SVG Export Plug-In . SVG Version: 6.00 Build 0)  -->
<svg version="1.1" xmlns="http://www.w3.org/2000/svg" xmlns:xlink="http://www.w3.org/1999/xlink" x="0px" y="0px"
	 viewBox="0 0 190 105" style="enable-background:new 0 0 190 105;" xml:space="preserve">
<style type="text/css">
	.st0{display:none;fill:#00AEEF;}
	.st1{fill:#FFFFFF;}
</style>
<g id="Fundo">
	<rect id="XMLID_1_" x="0" y="0" class="st0" width="190" height="105"/>
</g>
<g id="Logo">
	<g id="XMLID_119_">
		<path id="Iberica_7_" class="st1" d="M80.5,78.3L80.5,78.3l-3.2-0.1c-0.1,0-0.1,0-0.2,0c0,0-0.1-0.1-0.1-0.1v-0.6
			c0-0.1,0-0.1,0.1-0.2c0,0,0.1-0.1,0.1-0.1c0,0,0.1,0,0.1,0l3.1-0.6c0.1,0,0.1,0,0.2,0.1c0,0,0.1,0.1,0.1,0.2v1.4c0,0,0,0.1,0,0.2
			C80.6,78.3,80.5,78.3,80.5,78.3 M37.7,90.1c0,0.1,0,0.1-0.1,0.2c-0.1,0-0.1,0.1-0.2,0.1h-1.8c-0.1,0-0.1,0-0.2-0.1
			c0-0.1-0.1-0.1-0.1-0.2v-9.8c0-0.1,0-0.1,0.1-0.2s0.1-0.1,0.2-0.1h1.8c0.1,0,0.1,0,0.2,0.1c0,0,0.1,0.1,0.1,0.2V90.1z M60.1,87.4
			c0,0.8-0.2,1.4-0.6,1.9c-0.4,0.5-0.9,0.8-1.6,1c-0.7,0.2-1.4,0.3-2.2,0.3c-0.5,0-0.9,0-1.4-0.1c-0.5,0-0.8-0.1-1.1-0.1
			c-0.3,0-0.5-0.1-0.6-0.3c-0.1-0.1-0.2-0.3-0.2-0.6V81c0-0.3,0-0.5,0.2-0.6c0.1-0.1,0.3-0.2,0.6-0.3c0.3,0,0.6-0.1,1.1-0.1
			c0.5,0,0.9,0,1.4,0c1.3,0,2.4,0.2,3.2,0.6c0.8,0.4,1.2,1.2,1.2,2.3v0.2c0,0.5-0.1,0.9-0.3,1.2c-0.2,0.4-0.5,0.6-0.9,0.8
			c0.4,0.2,0.7,0.4,0.9,0.8c0.2,0.4,0.3,0.8,0.3,1.2V87.4z M57.7,83.2V83c0-0.4-0.1-0.6-0.4-0.8c-0.3-0.2-0.8-0.3-1.5-0.3h-0.5
			c-0.2,0-0.4,0-0.5,0v2.4h1.6c0.5,0,0.9-0.1,1.1-0.3C57.7,83.8,57.7,83.5,57.7,83.2 M57.8,87.4v-0.2c0-0.3-0.1-0.6-0.3-0.9
			c-0.2-0.2-0.6-0.4-1.2-0.4h-1.6v2.6h0.6l0.6,0c0.7,0,1.2-0.1,1.5-0.3C57.7,88.1,57.8,87.8,57.8,87.4 M80.7,90.1
			c0,0.1,0,0.1-0.1,0.2c0,0-0.1,0.1-0.2,0.1c-0.2,0.1-0.6,0.1-1,0.1c-0.4,0-1,0-1.7,0.1c-0.6,0-1.2-0.1-1.7-0.2
			c-0.5-0.2-0.9-0.5-1.2-0.9c-0.3-0.4-0.5-1.1-0.5-1.9v-4.6c0-0.8,0.2-1.5,0.5-1.9c0.3-0.4,0.7-0.7,1.2-0.9c0.5-0.1,1.1-0.2,1.7-0.2
			c0.7,0,1.3,0,1.7,0.1c0.4,0,0.7,0.1,1,0.1c0.1,0,0.2,0,0.2,0.1c0,0,0.1,0.1,0.1,0.2v1.3c0,0.1,0,0.1-0.1,0.2c0,0-0.1,0.1-0.2,0.1
			h-2.8c-0.3,0-0.6,0-0.7,0.2c-0.1,0.1-0.2,0.4-0.2,0.7v1.3h3.6c0.1,0,0.1,0,0.2,0.1c0,0,0.1,0.1,0.1,0.2v1.3c0,0.1,0,0.1-0.1,0.2
			c0,0-0.1,0.1-0.2,0.1h-3.6v1.5c0,0.4,0,0.6,0.2,0.7c0.1,0.1,0.4,0.2,0.7,0.2h2.8c0.1,0,0.1,0,0.2,0.1c0.1,0.1,0.1,0.1,0.1,0.2
			V90.1z M103,90.2c0,0,0,0.1,0,0.1c0,0.1-0.1,0.1-0.2,0.1h-2.1c-0.1,0-0.1,0-0.2-0.1c-0.1-0.1-0.1-0.1-0.1-0.2l-1.8-3.5l-0.2,0
			c-0.1,0-0.3,0-0.5,0h-0.5v3.5c0,0.1,0,0.1-0.1,0.2c0,0-0.1,0.1-0.2,0.1h-1.8c-0.1,0-0.1,0-0.2-0.1C95,90.3,95,90.2,95,90.1v-9.3
			c0-0.2,0-0.4,0.1-0.5c0.1-0.1,0.3-0.1,0.5-0.2c0.3-0.1,0.7-0.1,1.3-0.1c0.5,0,1,0,1.5,0c0.8,0,1.5,0.1,2.1,0.3
			c0.6,0.2,1.1,0.6,1.5,1c0.4,0.5,0.6,1.1,0.6,1.9v0.2c0,0.7-0.2,1.3-0.5,1.8c-0.3,0.5-0.7,0.8-1.3,1l2.1,3.9
			C102.9,90.1,103,90.2,103,90.2 M100.2,83.4v-0.2c0-0.4-0.1-0.7-0.5-0.9C99.5,82.1,99,82,98.4,82c-0.1,0-0.3,0-0.5,0
			c-0.2,0-0.4,0-0.5,0v2.7c0.1,0,0.3,0,0.5,0h0.5c0.7,0,1.2-0.1,1.5-0.3C100.1,84.2,100.3,83.9,100.2,83.4 M119.6,90.1
			c0,0.1,0,0.1-0.1,0.2c0,0-0.1,0.1-0.2,0.1h-1.9c-0.1,0-0.1,0-0.2-0.1c0-0.1-0.1-0.1-0.1-0.2v-9.8c0-0.1,0-0.1,0.1-0.2
			c0,0,0.1-0.1,0.2-0.1h1.9c0.1,0,0.1,0,0.2,0.1c0,0,0.1,0.1,0.1,0.2V90.1z M140.5,90c0,0.1,0,0.2-0.1,0.2c0,0.1-0.1,0.1-0.2,0.1
			c-0.1,0-0.4,0.1-0.8,0.1c-0.4,0-0.8,0.1-1.3,0.1c-0.7,0-1.4-0.1-2-0.4c-0.6-0.3-1.1-0.7-1.5-1.4c-0.4-0.6-0.6-1.5-0.6-2.6v-1.7
			c0-1.1,0.2-2,0.6-2.6c0.4-0.6,0.9-1.1,1.5-1.4c0.6-0.3,1.3-0.4,2-0.4c0.5,0,0.9,0,1.3,0.1c0.4,0.1,0.6,0.1,0.8,0.2
			c0.1,0,0.2,0,0.2,0.1c0,0,0.1,0.1,0.1,0.2v1.3c0,0.1,0,0.1,0,0.2c0,0-0.1,0.1-0.2,0.1c-0.3,0-0.6,0-1-0.1c-0.4,0-0.7,0-1.1,0
			c-0.5,0-0.9,0.1-1.2,0.5c-0.3,0.3-0.5,1-0.5,1.9v1.7c0,0.9,0.2,1.5,0.5,1.9c0.3,0.3,0.7,0.5,1.2,0.5c0.4,0,0.7,0,1.1,0
			c0.4,0,0.7,0,0.9-0.1c0.1,0,0.2,0,0.3,0.1c0,0,0,0.1,0,0.2V90z M162.5,90.2c0,0.1,0,0.1-0.1,0.2c0,0-0.1,0.1-0.2,0.1h-1.9
			c-0.1,0-0.1,0-0.2-0.1c0-0.1-0.1-0.1-0.1-0.2l-0.5-2.3h-2.9l-0.5,2.3c0,0.1-0.1,0.1-0.1,0.2c-0.1,0-0.1,0.1-0.2,0.1H154
			c-0.1,0-0.1,0-0.2-0.1c0,0-0.1-0.1-0.1-0.2v-0.1l2.1-8.6c0.2-0.6,0.5-1.1,0.9-1.3c0.4-0.2,0.9-0.3,1.4-0.3c0.5,0,1,0.1,1.4,0.3
			c0.4,0.2,0.7,0.6,0.9,1.3L162.5,90.2L162.5,90.2z M159.1,86l-0.9-3.8c0-0.1,0-0.1,0-0.2c0,0-0.1,0-0.1,0c-0.1,0-0.1,0-0.1,0
			c0,0,0,0.1,0,0.2l-0.9,3.8H159.1z"/>
		<path id="S_7_" class="st1" d="M144.2,63.1v-9.4h19.4c4.6,0,6.7-0.9,6.7-3.9c-0.2-4.2-12.8-8.1-16.1-9.6
			c-5.9-2.7-10.4-6.5-10.5-12.6c0.2-8.7,7.4-13.2,16.7-13.2h19.1v9.4h-20c-2.9,0-4.2,1.1-4.3,3.4c0.2,2.2,4.1,4,5.8,4.7
			c7.8,3.3,20.6,6.6,20.8,17.2c0,8.9-6.9,13.8-16.8,13.9H144.2z"/>
		<rect id="I_7_" x="128.5" y="14.6" class="st1" width="10" height="48.5"/>
		<rect id="M_Dash_7_" x="93" y="34.1" class="st1" width="10" height="29"/>
		<path id="M_7_" class="st1" d="M103,24.6l-10,0l-6.1,0c-0.3,0-0.6,0.1-1,0.3c-2.2,1-2.6,2.9-2.6,5.1l0,2v31.2h-10V29.8
			c0-10,5.3-15.2,15.4-15.2h19.2c5.1,0,9,1.5,11.4,4.7c2.1,2.8,3,6.8,3,11.9v31.9h-10V28.3c0-2.5-2.8-3.7-4.6-3.7H103z"/>
		<path id="E_7_" class="st1" d="M38.3,17.6c2.8-2.1,6.8-3,11.9-3h17.4v9.9H47.2c-2.4,0-3.6,2.7-3.6,4.6v4.6h23.9v9.9H43.6v6
			c0,0.3,0.1,0.6,0.3,1c1,2.2,2.9,2.6,5.1,2.6l2,0h16.5v9.9H48.8c-10,0-15.2-5.2-15.2-15.2v-19C33.6,23.8,35,20,38.3,17.6"/>
		<path id="L_7_" class="st1" d="M8.3,14.5h10v35.1c0,3.2,1.2,3.9,4.3,3.9h6.3c0.4,4.2,2.6,7.9,5.2,10H22.7c-4.4,0-7.9-1.1-10.5-3.5
			c-2.7-2.4-4-6-4-10.4V14.5z"/>
	</g>
	<g id="XMLID_106_">
		<path id="Iberica_6_" class="st1" d="M80.5,78.3L80.5,78.3l-3.2-0.1c-0.1,0-0.1,0-0.2,0c0,0-0.1-0.1-0.1-0.1v-0.6
			c0-0.1,0-0.1,0.1-0.2c0,0,0.1-0.1,0.1-0.1c0,0,0.1,0,0.1,0l3.1-0.6c0.1,0,0.1,0,0.2,0.1c0,0,0.1,0.1,0.1,0.2v1.4c0,0,0,0.1,0,0.2
			C80.6,78.3,80.5,78.3,80.5,78.3 M37.7,90.1c0,0.1,0,0.1-0.1,0.2c-0.1,0-0.1,0.1-0.2,0.1h-1.8c-0.1,0-0.1,0-0.2-0.1
			c0-0.1-0.1-0.1-0.1-0.2v-9.8c0-0.1,0-0.1,0.1-0.2s0.1-0.1,0.2-0.1h1.8c0.1,0,0.1,0,0.2,0.1c0,0,0.1,0.1,0.1,0.2V90.1z M60.1,87.4
			c0,0.8-0.2,1.4-0.6,1.9c-0.4,0.5-0.9,0.8-1.6,1c-0.7,0.2-1.4,0.3-2.2,0.3c-0.5,0-0.9,0-1.4-0.1c-0.5,0-0.8-0.1-1.1-0.1
			c-0.3,0-0.5-0.1-0.6-0.3c-0.1-0.1-0.2-0.3-0.2-0.6V81c0-0.3,0-0.5,0.2-0.6c0.1-0.1,0.3-0.2,0.6-0.3c0.3,0,0.6-0.1,1.1-0.1
			c0.5,0,0.9,0,1.4,0c1.3,0,2.4,0.2,3.2,0.6c0.8,0.4,1.2,1.2,1.2,2.3v0.2c0,0.5-0.1,0.9-0.3,1.2c-0.2,0.4-0.5,0.6-0.9,0.8
			c0.4,0.2,0.7,0.4,0.9,0.8c0.2,0.4,0.3,0.8,0.3,1.2V87.4z M57.7,83.2V83c0-0.4-0.1-0.6-0.4-0.8c-0.3-0.2-0.8-0.3-1.5-0.3h-0.5
			c-0.2,0-0.4,0-0.5,0v2.4h1.6c0.5,0,0.9-0.1,1.1-0.3C57.7,83.8,57.7,83.5,57.7,83.2 M57.8,87.4v-0.2c0-0.3-0.1-0.6-0.3-0.9
			c-0.2-0.2-0.6-0.4-1.2-0.4h-1.6v2.6h0.6l0.6,0c0.7,0,1.2-0.1,1.5-0.3C57.7,88.1,57.8,87.8,57.8,87.4 M80.7,90.1
			c0,0.1,0,0.1-0.1,0.2c0,0-0.1,0.1-0.2,0.1c-0.2,0.1-0.6,0.1-1,0.1c-0.4,0-1,0-1.7,0.1c-0.6,0-1.2-0.1-1.7-0.2
			c-0.5-0.2-0.9-0.5-1.2-0.9c-0.3-0.4-0.5-1.1-0.5-1.9v-4.6c0-0.8,0.2-1.5,0.5-1.9c0.3-0.4,0.7-0.7,1.2-0.9c0.5-0.1,1.1-0.2,1.7-0.2
			c0.7,0,1.3,0,1.7,0.1c0.4,0,0.7,0.1,1,0.1c0.1,0,0.2,0,0.2,0.1c0,0,0.1,0.1,0.1,0.2v1.3c0,0.1,0,0.1-0.1,0.2c0,0-0.1,0.1-0.2,0.1
			h-2.8c-0.3,0-0.6,0-0.7,0.2c-0.1,0.1-0.2,0.4-0.2,0.7v1.3h3.6c0.1,0,0.1,0,0.2,0.1c0,0,0.1,0.1,0.1,0.2v1.3c0,0.1,0,0.1-0.1,0.2
			c0,0-0.1,0.1-0.2,0.1h-3.6v1.5c0,0.4,0,0.6,0.2,0.7c0.1,0.1,0.4,0.2,0.7,0.2h2.8c0.1,0,0.1,0,0.2,0.1c0.1,0.1,0.1,0.1,0.1,0.2
			V90.1z M103,90.2c0,0,0,0.1,0,0.1c0,0.1-0.1,0.1-0.2,0.1h-2.1c-0.1,0-0.1,0-0.2-0.1c-0.1-0.1-0.1-0.1-0.1-0.2l-1.8-3.5l-0.2,0
			c-0.1,0-0.3,0-0.5,0h-0.5v3.5c0,0.1,0,0.1-0.1,0.2c0,0-0.1,0.1-0.2,0.1h-1.8c-0.1,0-0.1,0-0.2-0.1C95,90.3,95,90.2,95,90.1v-9.3
			c0-0.2,0-0.4,0.1-0.5c0.1-0.1,0.3-0.1,0.5-0.2c0.3-0.1,0.7-0.1,1.3-0.1c0.5,0,1,0,1.5,0c0.8,0,1.5,0.1,2.1,0.3
			c0.6,0.2,1.1,0.6,1.5,1c0.4,0.5,0.6,1.1,0.6,1.9v0.2c0,0.7-0.2,1.3-0.5,1.8c-0.3,0.5-0.7,0.8-1.3,1l2.1,3.9
			C102.9,90.1,103,90.2,103,90.2 M100.2,83.4v-0.2c0-0.4-0.1-0.7-0.5-0.9C99.5,82.1,99,82,98.4,82c-0.1,0-0.3,0-0.5,0
			c-0.2,0-0.4,0-0.5,0v2.7c0.1,0,0.3,0,0.5,0h0.5c0.7,0,1.2-0.1,1.5-0.3C100.1,84.2,100.3,83.9,100.2,83.4 M119.6,90.1
			c0,0.1,0,0.1-0.1,0.2c0,0-0.1,0.1-0.2,0.1h-1.9c-0.1,0-0.1,0-0.2-0.1c0-0.1-0.1-0.1-0.1-0.2v-9.8c0-0.1,0-0.1,0.1-0.2
			c0,0,0.1-0.1,0.2-0.1h1.9c0.1,0,0.1,0,0.2,0.1c0,0,0.1,0.1,0.1,0.2V90.1z M140.5,90c0,0.1,0,0.2-0.1,0.2c0,0.1-0.1,0.1-0.2,0.1
			c-0.1,0-0.4,0.1-0.8,0.1c-0.4,0-0.8,0.1-1.3,0.1c-0.7,0-1.4-0.1-2-0.4c-0.6-0.3-1.1-0.7-1.5-1.4c-0.4-0.6-0.6-1.5-0.6-2.6v-1.7
			c0-1.1,0.2-2,0.6-2.6c0.4-0.6,0.9-1.1,1.5-1.4c0.6-0.3,1.3-0.4,2-0.4c0.5,0,0.9,0,1.3,0.1c0.4,0.1,0.6,0.1,0.8,0.2
			c0.1,0,0.2,0,0.2,0.1c0,0,0.1,0.1,0.1,0.2v1.3c0,0.1,0,0.1,0,0.2c0,0-0.1,0.1-0.2,0.1c-0.3,0-0.6,0-1-0.1c-0.4,0-0.7,0-1.1,0
			c-0.5,0-0.9,0.1-1.2,0.5c-0.3,0.3-0.5,1-0.5,1.9v1.7c0,0.9,0.2,1.5,0.5,1.9c0.3,0.3,0.7,0.5,1.2,0.5c0.4,0,0.7,0,1.1,0
			c0.4,0,0.7,0,0.9-0.1c0.1,0,0.2,0,0.3,0.1c0,0,0,0.1,0,0.2V90z M162.5,90.2c0,0.1,0,0.1-0.1,0.2c0,0-0.1,0.1-0.2,0.1h-1.9
			c-0.1,0-0.1,0-0.2-0.1c0-0.1-0.1-0.1-0.1-0.2l-0.5-2.3h-2.9l-0.5,2.3c0,0.1-0.1,0.1-0.1,0.2c-0.1,0-0.1,0.1-0.2,0.1H154
			c-0.1,0-0.1,0-0.2-0.1c0,0-0.1-0.1-0.1-0.2v-0.1l2.1-8.6c0.2-0.6,0.5-1.1,0.9-1.3c0.4-0.2,0.9-0.3,1.4-0.3c0.5,0,1,0.1,1.4,0.3
			c0.4,0.2,0.7,0.6,0.9,1.3L162.5,90.2L162.5,90.2z M159.1,86l-0.9-3.8c0-0.1,0-0.1,0-0.2c0,0-0.1,0-0.1,0c-0.1,0-0.1,0-0.1,0
			c0,0,0,0.1,0,0.2l-0.9,3.8H159.1z"/>
		<path id="S_6_" class="st1" d="M144.2,63.1v-9.4h19.4c4.6,0,6.7-0.9,6.7-3.9c-0.2-4.2-12.8-8.1-16.1-9.6
			c-5.9-2.7-10.4-6.5-10.5-12.6c0.2-8.7,7.4-13.2,16.7-13.2h19.1v9.4h-20c-2.9,0-4.2,1.1-4.3,3.4c0.2,2.2,4.1,4,5.8,4.7
			c7.8,3.3,20.6,6.6,20.8,17.2c0,8.9-6.9,13.8-16.8,13.9H144.2z"/>
		<rect id="I_6_" x="128.5" y="14.6" class="st1" width="10" height="48.5"/>
		<rect id="M_Dash_6_" x="93" y="34.1" class="st1" width="10" height="29"/>
		<path id="M_6_" class="st1" d="M103,24.6l-10,0l-6.1,0c-0.3,0-0.6,0.1-1,0.3c-2.2,1-2.6,2.9-2.6,5.1l0,2v31.2h-10V29.8
			c0-10,5.3-15.2,15.4-15.2h19.2c5.1,0,9,1.5,11.4,4.7c2.1,2.8,3,6.8,3,11.9v31.9h-10V28.3c0-2.5-2.8-3.7-4.6-3.7H103z"/>
		<path id="E_6_" class="st1" d="M38.3,17.6c2.8-2.1,6.8-3,11.9-3h17.4v9.9H47.2c-2.4,0-3.6,2.7-3.6,4.6v4.6h23.9v9.9H43.6v6
			c0,0.3,0.1,0.6,0.3,1c1,2.2,2.9,2.6,5.1,2.6l2,0h16.5v9.9H48.8c-10,0-15.2-5.2-15.2-15.2v-19C33.6,23.8,35,20,38.3,17.6"/>
		<path id="L_6_" class="st1" d="M8.3,14.5h10v35.1c0,3.2,1.2,3.9,4.3,3.9h6.3c0.4,4.2,2.6,7.9,5.2,10H22.7c-4.4,0-7.9-1.1-10.5-3.5
			c-2.7-2.4-4-6-4-10.4V14.5z"/>
	</g>
</g>
</svg>
