<?xml version="1.0" encoding="UTF-8" standalone="no"?>
<!-- Generator: Adobe Illustrator 19.0.0, SVG Export Plug-In . SVG Version: 6.00 Build 0)  -->

<svg
   xmlns:dc="http://purl.org/dc/elements/1.1/"
   xmlns:cc="http://creativecommons.org/ns#"
   xmlns:rdf="http://www.w3.org/1999/02/22-rdf-syntax-ns#"
   xmlns:svg="http://www.w3.org/2000/svg"
   xmlns="http://www.w3.org/2000/svg"
   xmlns:sodipodi="http://sodipodi.sourceforge.net/DTD/sodipodi-0.dtd"
   xmlns:inkscape="http://www.inkscape.org/namespaces/inkscape"
   version="1.1"
   x="0px"
   y="0px"
   viewBox="0 0 175 50"
   xml:space="preserve"
   id="svg29"
   sodipodi:docname="Lemis_Logo_White.svg"
   width="175"
   height="50"
   inkscape:version="0.92.2 (5c3e80d, 2017-08-06)"><metadata
     id="metadata35"><rdf:RDF><cc:Work
         rdf:about=""><dc:format>image/svg+xml</dc:format><dc:type
           rdf:resource="http://purl.org/dc/dcmitype/StillImage" /><dc:title></dc:title></cc:Work></rdf:RDF></metadata><defs
     id="defs33" /><sodipodi:namedview
     pagecolor="#ffffff"
     bordercolor="#666666"
     borderopacity="1"
     objecttolerance="10"
     gridtolerance="10"
     guidetolerance="10"
     inkscape:pageopacity="0"
     inkscape:pageshadow="2"
     inkscape:window-width="2560"
     inkscape:window-height="1377"
     id="namedview31"
     showgrid="false"
     inkscape:pagecheckerboard="true"
     inkscape:zoom="11.084211"
     inkscape:cx="95"
     inkscape:cy="52.5"
     inkscape:window-x="-8"
     inkscape:window-y="-8"
     inkscape:window-maximized="1"
     inkscape:current-layer="svg29" /><style
     type="text/css"
     id="style10">
	.st0{display:none;fill:#00AEEF;}
	.st1{fill:#FFFFFF;}
</style><g
     id="Fundo"
     transform="translate(0,-55)"><rect
       id="XMLID_1_"
       x="0"
       y="0"
       class="st0"
       width="190"
       height="105"
       style="display:none;fill:#00aeef" /></g><g
     id="Logo"
     transform="translate(-7.3076923,-13.950617)"><g
       id="XMLID_119_"><path
         id="S_7_"
         class="st1"
         d="m 144.2,63.1 v -9.4 h 19.4 c 4.6,0 6.7,-0.9 6.7,-3.9 -0.2,-4.2 -12.8,-8.1 -16.1,-9.6 -5.9,-2.7 -10.4,-6.5 -10.5,-12.6 0.2,-8.7 7.4,-13.2 16.7,-13.2 h 19.1 v 9.4 h -20 c -2.9,0 -4.2,1.1 -4.3,3.4 0.2,2.2 4.1,4 5.8,4.7 7.8,3.3 20.6,6.6 20.8,17.2 0,8.9 -6.9,13.8 -16.8,13.9 h -20.8 z"
         inkscape:connector-curvature="0"
         style="fill:#ffffff" /><rect
         id="I_7_"
         x="128.5"
         y="14.6"
         class="st1"
         width="10"
         height="48.5"
         style="fill:#ffffff" /><rect
         id="M_Dash_7_"
         x="93"
         y="34.099998"
         class="st1"
         width="10"
         height="29"
         style="fill:#ffffff" /><path
         id="M_7_"
         class="st1"
         d="M 103,24.6 H 93 86.9 c -0.3,0 -0.6,0.1 -1,0.3 -2.2,1 -2.6,2.9 -2.6,5.1 v 2 31.2 h -10 V 29.8 c 0,-10 5.3,-15.2 15.4,-15.2 h 19.2 c 5.1,0 9,1.5 11.4,4.7 2.1,2.8 3,6.8 3,11.9 v 31.9 h -10 V 28.3 c 0,-2.5 -2.8,-3.7 -4.6,-3.7 z"
         inkscape:connector-curvature="0"
         style="fill:#ffffff" /><path
         id="E_7_"
         class="st1"
         d="m 38.3,17.6 c 2.8,-2.1 6.8,-3 11.9,-3 h 17.4 v 9.9 H 47.2 c -2.4,0 -3.6,2.7 -3.6,4.6 v 4.6 h 23.9 v 9.9 H 43.6 v 6 c 0,0.3 0.1,0.6 0.3,1 1,2.2 2.9,2.6 5.1,2.6 h 2 16.5 v 9.9 H 48.8 c -10,0 -15.2,-5.2 -15.2,-15.2 v -19 c 0,-5.1 1.4,-8.9 4.7,-11.3"
         inkscape:connector-curvature="0"
         style="fill:#ffffff" /><path
         id="L_7_"
         class="st1"
         d="m 8.3,14.5 h 10 v 35.1 c 0,3.2 1.2,3.9 4.3,3.9 h 6.3 c 0.4,4.2 2.6,7.9 5.2,10 H 22.7 C 18.3,63.5 14.8,62.4 12.2,60 9.5,57.6 8.2,54 8.2,49.6 V 14.5 Z"
         inkscape:connector-curvature="0"
         style="fill:#ffffff" /></g><g
       id="XMLID_106_"><path
         id="S_6_"
         class="st1"
         d="m 144.2,63.1 v -9.4 h 19.4 c 4.6,0 6.7,-0.9 6.7,-3.9 -0.2,-4.2 -12.8,-8.1 -16.1,-9.6 -5.9,-2.7 -10.4,-6.5 -10.5,-12.6 0.2,-8.7 7.4,-13.2 16.7,-13.2 h 19.1 v 9.4 h -20 c -2.9,0 -4.2,1.1 -4.3,3.4 0.2,2.2 4.1,4 5.8,4.7 7.8,3.3 20.6,6.6 20.8,17.2 0,8.9 -6.9,13.8 -16.8,13.9 h -20.8 z"
         inkscape:connector-curvature="0"
         style="fill:#ffffff" /><rect
         id="I_6_"
         x="128.5"
         y="14.6"
         class="st1"
         width="10"
         height="48.5"
         style="fill:#ffffff" /><rect
         id="M_Dash_6_"
         x="93"
         y="34.099998"
         class="st1"
         width="10"
         height="29"
         style="fill:#ffffff" /><path
         id="M_6_"
         class="st1"
         d="M 103,24.6 H 93 86.9 c -0.3,0 -0.6,0.1 -1,0.3 -2.2,1 -2.6,2.9 -2.6,5.1 v 2 31.2 h -10 V 29.8 c 0,-10 5.3,-15.2 15.4,-15.2 h 19.2 c 5.1,0 9,1.5 11.4,4.7 2.1,2.8 3,6.8 3,11.9 v 31.9 h -10 V 28.3 c 0,-2.5 -2.8,-3.7 -4.6,-3.7 z"
         inkscape:connector-curvature="0"
         style="fill:#ffffff" /><path
         id="E_6_"
         class="st1"
         d="m 38.3,17.6 c 2.8,-2.1 6.8,-3 11.9,-3 h 17.4 v 9.9 H 47.2 c -2.4,0 -3.6,2.7 -3.6,4.6 v 4.6 h 23.9 v 9.9 H 43.6 v 6 c 0,0.3 0.1,0.6 0.3,1 1,2.2 2.9,2.6 5.1,2.6 h 2 16.5 v 9.9 H 48.8 c -10,0 -15.2,-5.2 -15.2,-15.2 v -19 c 0,-5.1 1.4,-8.9 4.7,-11.3"
         inkscape:connector-curvature="0"
         style="fill:#ffffff" /><path
         id="L_6_"
         class="st1"
         d="m 8.3,14.5 h 10 v 35.1 c 0,3.2 1.2,3.9 4.3,3.9 h 6.3 c 0.4,4.2 2.6,7.9 5.2,10 H 22.7 C 18.3,63.5 14.8,62.4 12.2,60 9.5,57.6 8.2,54 8.2,49.6 V 14.5 Z"
         inkscape:connector-curvature="0"
         style="fill:#ffffff" /></g></g></svg>