<?xml version="1.0" encoding="utf-8"?>
<!-- Generator: Adobe Illustrator 19.0.0, SVG Export Plug-In . SVG Version: 6.00 Build 0)  -->
<svg version="1.1" xmlns="http://www.w3.org/2000/svg" xmlns:xlink="http://www.w3.org/1999/xlink" x="0px" y="0px"
	 viewBox="0 0 190 105" style="enable-background:new 0 0 190 105;" xml:space="preserve">
<style type="text/css">
	.st0{display:none;fill:#00AEEF;}
	.st1{fill:#FFFFFF;}
</style>
<g id="Fundo">
	<rect id="XMLID_1_" x="0" y="0" class="st0" width="190" height="105"/>
</g>
<g id="Logo">
	<g id="XMLID_119_">
		<path id="S_7_" class="st1" d="M144.2,63.1v-9.4h19.4c4.6,0,6.7-0.9,6.7-3.9c-0.2-4.2-12.8-8.1-16.1-9.6
			c-5.9-2.7-10.4-6.5-10.5-12.6c0.2-8.7,7.4-13.2,16.7-13.2h19.1v9.4h-20c-2.9,0-4.2,1.1-4.3,3.4c0.2,2.2,4.1,4,5.8,4.7
			c7.8,3.3,20.6,6.6,20.8,17.2c0,8.9-6.9,13.8-16.8,13.9H144.2z"/>
		<rect id="I_7_" x="128.5" y="14.6" class="st1" width="10" height="48.5"/>
		<rect id="M_Dash_7_" x="93" y="34.1" class="st1" width="10" height="29"/>
		<path id="M_7_" class="st1" d="M103,24.6l-10,0l-6.1,0c-0.3,0-0.6,0.1-1,0.3c-2.2,1-2.6,2.9-2.6,5.1l0,2v31.2h-10V29.8
			c0-10,5.3-15.2,15.4-15.2h19.2c5.1,0,9,1.5,11.4,4.7c2.1,2.8,3,6.8,3,11.9v31.9h-10V28.3c0-2.5-2.8-3.7-4.6-3.7H103z"/>
		<path id="E_7_" class="st1" d="M38.3,17.6c2.8-2.1,6.8-3,11.9-3h17.4v9.9H47.2c-2.4,0-3.6,2.7-3.6,4.6v4.6h23.9v9.9H43.6v6
			c0,0.3,0.1,0.6,0.3,1c1,2.2,2.9,2.6,5.1,2.6l2,0h16.5v9.9H48.8c-10,0-15.2-5.2-15.2-15.2v-19C33.6,23.8,35,20,38.3,17.6"/>
		<path id="L_7_" class="st1" d="M8.3,14.5h10v35.1c0,3.2,1.2,3.9,4.3,3.9h6.3c0.4,4.2,2.6,7.9,5.2,10H22.7c-4.4,0-7.9-1.1-10.5-3.5
			c-2.7-2.4-4-6-4-10.4V14.5z"/>
	</g>
	<g id="XMLID_106_">
		<path id="S_6_" class="st1" d="M144.2,63.1v-9.4h19.4c4.6,0,6.7-0.9,6.7-3.9c-0.2-4.2-12.8-8.1-16.1-9.6
			c-5.9-2.7-10.4-6.5-10.5-12.6c0.2-8.7,7.4-13.2,16.7-13.2h19.1v9.4h-20c-2.9,0-4.2,1.1-4.3,3.4c0.2,2.2,4.1,4,5.8,4.7
			c7.8,3.3,20.6,6.6,20.8,17.2c0,8.9-6.9,13.8-16.8,13.9H144.2z"/>
		<rect id="I_6_" x="128.5" y="14.6" class="st1" width="10" height="48.5"/>
		<rect id="M_Dash_6_" x="93" y="34.1" class="st1" width="10" height="29"/>
		<path id="M_6_" class="st1" d="M103,24.6l-10,0l-6.1,0c-0.3,0-0.6,0.1-1,0.3c-2.2,1-2.6,2.9-2.6,5.1l0,2v31.2h-10V29.8
			c0-10,5.3-15.2,15.4-15.2h19.2c5.1,0,9,1.5,11.4,4.7c2.1,2.8,3,6.8,3,11.9v31.9h-10V28.3c0-2.5-2.8-3.7-4.6-3.7H103z"/>
		<path id="E_6_" class="st1" d="M38.3,17.6c2.8-2.1,6.8-3,11.9-3h17.4v9.9H47.2c-2.4,0-3.6,2.7-3.6,4.6v4.6h23.9v9.9H43.6v6
			c0,0.3,0.1,0.6,0.3,1c1,2.2,2.9,2.6,5.1,2.6l2,0h16.5v9.9H48.8c-10,0-15.2-5.2-15.2-15.2v-19C33.6,23.8,35,20,38.3,17.6"/>
		<path id="L_6_" class="st1" d="M8.3,14.5h10v35.1c0,3.2,1.2,3.9,4.3,3.9h6.3c0.4,4.2,2.6,7.9,5.2,10H22.7c-4.4,0-7.9-1.1-10.5-3.5
			c-2.7-2.4-4-6-4-10.4V14.5z"/>
	</g>
</g>
</svg>
